<svg width="80" height="80" viewBox="0 0 80 80" fill="none" xmlns="http://www.w3.org/2000/svg">
<path d="M0 40C0 21.1438 0 11.7157 5.85786 5.85786C11.7157 0 21.1438 0 40 0C58.8562 0 68.2843 0 74.1421 5.85786C80 11.7157 80 21.1438 80 40C80 58.8562 80 68.2843 74.1421 74.1421C68.2843 80 58.8562 80 40 80C21.1438 80 11.7157 80 5.85786 74.1421C0 68.2843 0 58.8562 0 40Z" fill="url(#paint0_linear_616_2307)"/>
<path d="M5 37C5 21.9151 5 14.3726 9.68629 9.68629C14.3726 5 21.9151 5 37 5H43C58.0849 5 65.6274 5 70.3137 9.68629C75 14.3726 75 21.9151 75 37V43C75 58.0849 75 65.6274 70.3137 70.3137C65.6274 75 58.0849 75 43 75H37C21.9151 75 14.3726 75 9.68629 70.3137C5 65.6274 5 58.0849 5 43V37Z" fill="url(#paint1_linear_616_2307)"/>
<mask id="mask0_616_2307" style="mask-type:alpha" maskUnits="userSpaceOnUse" x="5" y="5" width="70" height="71">
<path d="M5 37.0001C5 21.9152 5 14.3727 9.68629 9.68641C14.3726 5.00012 21.9151 5.00012 37 5.00012H43C58.0849 5.00012 65.6274 5.00012 70.3137 9.68641C75 14.3727 75 21.9152 75 37.0001V43.0001C75 58.0851 75 65.6275 70.3137 70.3138C65.6274 75.0001 58.0849 75.0001 43 75.0001H37C21.9151 75.0001 14.3726 75.0001 9.68629 70.3138C5 65.6275 5 58.0851 5 43.0001V37.0001Z" fill="url(#paint2_linear_616_2307)"/>
</mask>
<g mask="url(#mask0_616_2307)">
<path opacity="0.1" d="M0.983263 135.334L0.983338 -28.7493M13.7304 135.334L13.7305 -28.7493M26.4776 135.334L26.4776 -28.7493M39.2247 135.334L39.2248 -28.7493M51.9718 135.334L51.9719 -28.7493M64.719 135.334L64.719 -28.7493M77.4661 135.334L77.4662 -28.7493M90.2133 135.334L90.2133 -28.7493M102.96 135.334L102.96 -28.7493M115.708 135.334L115.708 -28.7493M128.455 135.334L128.455 -28.7493M-8.58325 134.329H133.5M-8.58325 121.605H133.5M-8.58325 108.88H133.5M-8.58325 96.1549H133.5M-8.58325 83.4301H133.5M-8.58325 70.7052H133.5M-8.58325 57.9804H133.5M-8.58325 45.2556H133.5M-8.58325 32.5308H133.5M-8.58325 19.8059H133.5M-8.58325 7.08109H133.5M-8.58325 -5.64373H133.5M-8.58325 -18.3686H133.5" stroke="#70A38C" stroke-width="0.916667"/>
<g filter="url(#filter0_f_616_2307)" style="mix-blend-mode:plus-darker">
<circle cx="40" cy="40" r="27" fill="#59EC65" fill-opacity="0.15"/>
</g>
<path d="M30.1319 27.2L32.7791 22.788C32.8502 22.6696 32.9507 22.5717 33.0708 22.5037C33.191 22.4357 33.3267 22.4 33.4647 22.4H46.5351C46.8159 22.4 47.0767 22.5472 47.2207 22.788L49.8679 27.2L49.5999 28.8H53.5999V27.2L49.7319 20.7536C49.4476 20.2797 49.0454 19.8876 48.5646 19.6153C48.0837 19.343 47.5405 19.1999 46.9879 19.2H33.0119C32.4593 19.1999 31.9161 19.343 31.4353 19.6153C30.9544 19.8876 30.5522 20.2797 30.2679 20.7536L26.3999 27.2V28.8H30.3999L30.1319 27.2Z" fill="url(#paint3_linear_616_2307)"/>
<g filter="url(#filter1_d_616_2307)">
<path d="M62.4001 40.416V58.4C62.4001 59.728 61.3281 60.8 60.0001 60.8H20.0001C18.6721 60.8 17.6001 59.728 17.6001 58.4V40.416H62.4001Z" fill="url(#paint4_linear_616_2307)"/>
</g>
<g filter="url(#filter2_i_616_2307)">
<path d="M40 45.6C41.3133 45.6 41.9699 45.6 42.6233 45.5607C43.5303 45.5062 44.4331 45.3952 45.3262 45.2281C45.9696 45.1078 46.6067 44.9486 47.8807 44.6302L60.7761 41.408C61.4677 41.2336 62.0815 40.8338 62.5204 40.2717C62.9594 39.7096 63.1986 39.0172 63.2001 38.304V29.6C63.2001 28.272 62.128 27.2 60.8 27.2H19.2C17.872 27.2 16.8 28.272 16.8 29.6V38.304C16.8015 39.0172 17.0407 39.7096 17.4797 40.2717C17.9186 40.8338 18.5324 41.2336 19.224 41.408L32.1194 44.6302C33.3934 44.9486 34.0305 45.1078 34.6739 45.2281C35.567 45.3952 36.4698 45.5062 37.3768 45.5607C38.0302 45.6 38.6868 45.6 40 45.6Z" fill="#CCEBE0"/>
</g>
<path d="M60.8 26.7C62.4042 26.7 63.7004 27.9962 63.7004 29.6003V38.3054C63.6986 39.1297 63.4216 39.9302 62.9143 40.5798C62.407 41.2293 61.6977 41.6908 60.8987 41.8923L60.8977 41.8933L48.0022 45.115C46.7337 45.432 46.0797 45.5958 45.4182 45.7195C44.5047 45.8903 43.5813 46.0046 42.6536 46.0603C41.9818 46.1006 41.3077 46.1003 40.0002 46.1003C38.6927 46.1003 38.0186 46.1006 37.3469 46.0603C36.4192 46.0046 35.4958 45.8903 34.5823 45.7195C33.9208 45.5958 33.2669 45.432 31.9983 45.115L19.1028 41.8933L19.1018 41.8923C18.3025 41.6908 17.5926 41.2295 17.0852 40.5798C16.5779 39.9302 16.3019 39.1297 16.3 38.3054V29.6003C16.3 27.9962 17.5963 26.7 19.2004 26.7H60.8Z" stroke="#B5EAD6"/>
<g filter="url(#filter3_d_616_2307)">
<path d="M42.4 43.2H37.6C36.7163 43.2 36 43.9163 36 44.8V47.2C36 48.0836 36.7163 48.8 37.6 48.8H42.4C43.2837 48.8 44 48.0836 44 47.2V44.8C44 43.9163 43.2837 43.2 42.4 43.2Z" fill="url(#paint5_linear_616_2307)"/>
</g>
</g>
<defs>
<filter id="filter0_f_616_2307" x="-12" y="-12" width="104" height="104" filterUnits="userSpaceOnUse" color-interpolation-filters="sRGB">
<feFlood flood-opacity="0" result="BackgroundImageFix"/>
<feBlend mode="normal" in="SourceGraphic" in2="BackgroundImageFix" result="shape"/>
<feGaussianBlur stdDeviation="12.5" result="effect1_foregroundBlur_616_2307"/>
</filter>
<filter id="filter1_d_616_2307" x="13.0001" y="35.816" width="54" height="29.584" filterUnits="userSpaceOnUse" color-interpolation-filters="sRGB">
<feFlood flood-opacity="0" result="BackgroundImageFix"/>
<feColorMatrix in="SourceAlpha" type="matrix" values="0 0 0 0 0 0 0 0 0 0 0 0 0 0 0 0 0 0 127 0" result="hardAlpha"/>
<feOffset/>
<feGaussianBlur stdDeviation="2.3"/>
<feComposite in2="hardAlpha" operator="out"/>
<feColorMatrix type="matrix" values="0 0 0 0 0.438525 0 0 0 0 0.640297 0 0 0 0 0.550031 0 0 0 0.5 0"/>
<feBlend mode="normal" in2="BackgroundImageFix" result="effect1_dropShadow_616_2307"/>
<feBlend mode="normal" in="SourceGraphic" in2="effect1_dropShadow_616_2307" result="shape"/>
</filter>
<filter id="filter2_i_616_2307" x="15.8" y="26.2" width="48.3999" height="20.4" filterUnits="userSpaceOnUse" color-interpolation-filters="sRGB">
<feFlood flood-opacity="0" result="BackgroundImageFix"/>
<feBlend mode="normal" in="SourceGraphic" in2="BackgroundImageFix" result="shape"/>
<feColorMatrix in="SourceAlpha" type="matrix" values="0 0 0 0 0 0 0 0 0 0 0 0 0 0 0 0 0 0 127 0" result="hardAlpha"/>
<feOffset/>
<feGaussianBlur stdDeviation="5"/>
<feComposite in2="hardAlpha" operator="arithmetic" k2="-1" k3="1"/>
<feColorMatrix type="matrix" values="0 0 0 0 0.109804 0 0 0 0 0.729412 0 0 0 0 0.552941 0 0 0 0.5 0"/>
<feBlend mode="normal" in2="shape" result="effect1_innerShadow_616_2307"/>
</filter>
<filter id="filter3_d_616_2307" x="31.4" y="38.6" width="17.2" height="14.8" filterUnits="userSpaceOnUse" color-interpolation-filters="sRGB">
<feFlood flood-opacity="0" result="BackgroundImageFix"/>
<feColorMatrix in="SourceAlpha" type="matrix" values="0 0 0 0 0 0 0 0 0 0 0 0 0 0 0 0 0 0 127 0" result="hardAlpha"/>
<feOffset/>
<feGaussianBlur stdDeviation="2.3"/>
<feComposite in2="hardAlpha" operator="out"/>
<feColorMatrix type="matrix" values="0 0 0 0 0.438525 0 0 0 0 0.640297 0 0 0 0 0.550031 0 0 0 0.5 0"/>
<feBlend mode="normal" in2="BackgroundImageFix" result="effect1_dropShadow_616_2307"/>
<feBlend mode="normal" in="SourceGraphic" in2="effect1_dropShadow_616_2307" result="shape"/>
</filter>
<linearGradient id="paint0_linear_616_2307" x1="40" y1="-16.3077" x2="111.545" y2="19.7021" gradientUnits="userSpaceOnUse">
<stop stop-color="#59EC65"/>
<stop offset="1" stop-color="#1CBA8D"/>
</linearGradient>
<linearGradient id="paint1_linear_616_2307" x1="7.91667" y1="77.5" x2="82.0833" y2="2.5" gradientUnits="userSpaceOnUse">
<stop stop-color="#EAFFE9"/>
<stop offset="1" stop-color="#E8EDEB"/>
</linearGradient>
<linearGradient id="paint2_linear_616_2307" x1="7.91667" y1="77.5001" x2="82.0833" y2="2.50012" gradientUnits="userSpaceOnUse">
<stop stop-color="#EAFFE9"/>
<stop offset="1" stop-color="#E8EDEB"/>
</linearGradient>
<linearGradient id="paint3_linear_616_2307" x1="27.0902" y1="19.3914" x2="53.6635" y2="26.2854" gradientUnits="userSpaceOnUse">
<stop stop-color="#59EC65"/>
<stop offset="1" stop-color="#1CBA8D"/>
</linearGradient>
<linearGradient id="paint4_linear_616_2307" x1="18.7371" y1="40.8225" x2="63.6326" y2="49.8573" gradientUnits="userSpaceOnUse">
<stop stop-color="#59EC65"/>
<stop offset="1" stop-color="#1CBA8D"/>
</linearGradient>
<linearGradient id="paint5_linear_616_2307" x1="38.9203" y1="41.4751" x2="42.3379" y2="46.8552" gradientUnits="userSpaceOnUse">
<stop stop-color="#59EC65"/>
<stop offset="1" stop-color="#1CBA8D"/>
</linearGradient>
</defs>
</svg>
