<svg width="1920" height="12134" viewBox="0 0 1920 12134" fill="none" xmlns="http://www.w3.org/2000/svg">
<g clip-path="url(#clip0_601_631)">
<g filter="url(#filter0_f_601_631)">
<path d="M1240 10973C1040.61 10633.9 609.228 10901.2 407.314 11086.5C399.69 11093.5 393.23 11101.9 388.451 11111.1C251.233 11374.5 482.096 11407.2 648.834 11387.5C676.505 11384.2 704.432 11390.9 729.136 11403.7C825.88 11454.2 1044.85 11519.2 1384 11493C1876 11455 1494 11405 1240 10973Z" fill="#315B46"/>
</g>
<g filter="url(#filter1_f_601_631)">
<path d="M2027.65 11902.9C1988.72 12018.8 1789.11 12302.8 1712.69 12277.1C1636.28 12251.4 1367.73 12015.5 1406.66 11899.6C1445.59 11783.8 1904.57 11329.2 1980.99 11354.9C2057.4 11380.6 2066.58 11787.1 2027.65 11902.9Z" fill="#37A193" fill-opacity="0.35"/>
</g>
<g filter="url(#filter2_f_601_631)">
<path d="M1514 10873C1449.04 10981.2 1802.31 11088 1674 11106.1C1545.69 11124.2 1005.04 10931.4 1070 10823.2C1134.96 10715.1 1648.94 10654.2 1777.25 10636.1C1905.56 10618.1 1578.96 10764.8 1514 10873Z" fill="#15FFE0" fill-opacity="0.25"/>
</g>
<g filter="url(#filter3_f_601_631)">
<path d="M481.924 10894.5C501.718 10823.2 168.942 10685.1 266.623 10713.5C364.305 10741.9 935.098 10820.6 915.303 10892C895.508 10963.4 422.12 11113.5 324.438 11085.1C226.757 11056.6 462.129 10965.9 481.924 10894.5Z" fill="#59EC65" fill-opacity="0.25"/>
</g>
<g filter="url(#filter4_f_601_631)">
<path d="M896.511 7992C1095.9 7652.87 1527.28 7920.23 1729.2 8105.48C1736.82 8112.47 1743.28 8120.87 1748.06 8130.05C1885.28 8393.5 1654.41 8426.17 1487.68 8406.46C1460.01 8403.19 1432.08 8409.86 1407.37 8422.75C1310.63 8473.21 1091.66 8538.19 752.511 8512C260.511 8474 642.511 8424 896.511 7992Z" fill="#315B46"/>
</g>
<g filter="url(#filter5_f_601_631)">
<path d="M108.858 8921.93C147.788 9037.75 347.403 9321.79 423.818 9296.1C500.232 9270.41 768.784 9034.46 729.853 8918.64C690.923 8802.82 231.938 8348.23 155.524 8373.92C79.1094 8399.6 69.9274 8806.11 108.858 8921.93Z" fill="#37A193" fill-opacity="0.35"/>
</g>
<g filter="url(#filter6_f_601_631)">
<path d="M445.625 7623.86C541.375 7827.98 20.6715 8029.67 209.797 8063.76C398.923 8097.86 1195.8 7734.07 1100.05 7529.95C1004.3 7325.83 246.74 7210.97 57.6147 7176.87C-131.511 7142.77 349.876 7419.74 445.625 7623.86Z" fill="#15FFE0" fill-opacity="0.15"/>
</g>
<g filter="url(#filter7_f_601_631)">
<path d="M1654.59 7913.55C1634.79 7842.17 1967.57 7704.06 1869.89 7732.47C1772.21 7760.88 1201.41 7839.63 1221.21 7911C1241 7982.38 1714.39 8132.47 1812.07 8104.06C1909.75 8075.65 1674.38 7984.92 1654.59 7913.55Z" fill="#59EC65" fill-opacity="0.25"/>
</g>
<g filter="url(#filter8_f_601_631)">
<path d="M1240 6252C1040.61 5912.87 609.228 6180.23 407.314 6365.48C399.69 6372.47 393.23 6380.87 388.451 6390.05C251.233 6653.5 482.096 6686.17 648.834 6666.46C676.505 6663.19 704.432 6669.86 729.136 6682.75C825.88 6733.21 1044.85 6798.19 1384 6772C1876 6734 1494 6684 1240 6252Z" fill="#315B46"/>
</g>
<g filter="url(#filter9_f_601_631)">
<path d="M2027.65 7181.93C1988.72 7297.75 1789.11 7581.79 1712.69 7556.1C1636.28 7530.41 1367.73 7294.46 1406.66 7178.64C1445.59 7062.82 1904.57 6608.23 1980.99 6633.92C2057.4 6659.6 2066.58 7066.11 2027.65 7181.93Z" fill="#37A193" fill-opacity="0.35"/>
</g>
<g filter="url(#filter10_f_601_631)">
<path d="M1514.25 6086.12C1449.31 6224.56 1802.48 6361.36 1674.2 6384.48C1545.93 6407.61 1005.45 6160.87 1070.39 6022.42C1135.33 5883.98 1649.14 5806.07 1777.42 5782.95C1905.69 5759.82 1579.19 5947.67 1514.25 6086.12Z" fill="#15FFE0" fill-opacity="0.25"/>
</g>
<g filter="url(#filter11_f_601_631)">
<path d="M481.924 6173.55C501.718 6102.17 168.942 5964.06 266.623 5992.47C364.305 6020.88 935.098 6099.63 915.303 6171C895.508 6242.38 422.12 6392.47 324.438 6364.06C226.757 6335.65 462.129 6244.92 481.924 6173.55Z" fill="#59EC65" fill-opacity="0.25"/>
</g>
<g filter="url(#filter12_f_601_631)">
<path d="M1240 9542C1040.61 9202.87 609.228 9470.23 407.314 9655.48C399.69 9662.47 393.23 9670.87 388.451 9680.05C251.232 9943.5 482.095 9976.17 648.833 9956.46C676.505 9953.19 704.432 9959.86 729.136 9972.75C825.88 10023.2 1044.85 10088.2 1384 10062C1876 10024 1494 9974 1240 9542Z" fill="#315B46"/>
</g>
<g filter="url(#filter13_f_601_631)">
<path d="M1404.13 10674.3C1201.04 10694.9 638.722 10661.4 631.281 10588.2C623.84 10514.9 822.928 10192 1026.01 10171.4C1229.1 10150.7 2215.15 10317 2222.6 10390.3C2230.04 10463.5 1607.21 10653.7 1404.13 10674.3Z" fill="#37A193" fill-opacity="0.35"/>
</g>
<g filter="url(#filter14_f_601_631)">
<path d="M1712.84 9026.12C1619.19 9164.56 2128.47 9301.36 1943.5 9324.48C1758.52 9347.61 979.128 9100.87 1072.78 8962.42C1166.43 8823.98 1907.37 8746.07 2092.34 8722.95C2277.32 8699.82 1806.49 8887.67 1712.84 9026.12Z" fill="#15FFE0" fill-opacity="0.25"/>
</g>
<g filter="url(#filter15_f_601_631)">
<path d="M481.924 9463.55C501.718 9392.17 168.942 9254.06 266.623 9282.47C364.305 9310.88 935.098 9389.63 915.303 9461C895.508 9532.38 422.12 9682.47 324.438 9654.06C226.757 9625.65 462.129 9534.92 481.924 9463.55Z" fill="#59EC65" fill-opacity="0.25"/>
</g>
<g filter="url(#filter16_f_601_631)">
<path d="M1653 4989.5C1394.15 4873.45 832.857 5387.33 674.958 5573.3C668.232 5581.23 662.994 5590.21 659.623 5600.04C591.81 5797.75 828.861 5721.44 978.555 5647.84C994.514 5640 1012.03 5636.27 1029.79 5635.48C1124.66 5631.26 1348.1 5590.16 1671.82 5446.14C2121.94 5245.89 1983.68 5137.76 1653 4989.5Z" fill="#315B46"/>
</g>
<g filter="url(#filter17_f_601_631)">
<path d="M1031.62 4102.22C832.564 3814.73 402.362 4040.38 199.904 4197.69C191.503 4204.22 184.208 4212.3 178.688 4221.4C42.347 4446.03 279.478 4471.57 446.157 4453.65C470.311 4451.06 494.651 4456.29 516.763 4466.35C611.483 4509.45 831.824 4566.45 1175.65 4543.9C1667.77 4511.62 1285.68 4469.15 1031.62 4102.22Z" fill="#315B46"/>
</g>
<g filter="url(#filter18_f_601_631)">
<path d="M774.865 4933.38C616.336 4935.72 183.688 4886.72 183.022 4841.51C182.357 4796.3 972.115 4562.47 1130.64 4560.14C1289.17 4557.8 1911.1 4660.09 1911.77 4705.29C1912.43 4750.5 933.394 4931.05 774.865 4933.38Z" fill="#16524A" fill-opacity="0.35"/>
</g>
<g filter="url(#filter19_f_601_631)">
<path d="M387.406 5387.88C269.384 5356.26 -26.5612 5174.76 -5.69631 5096.9C15.1686 5019.03 233.898 4736.27 351.921 4767.89C469.943 4799.52 952.301 5229.23 931.436 5307.1C910.571 5384.96 505.429 5419.51 387.406 5387.88Z" fill="#37A193" fill-opacity="0.35"/>
</g>
<g filter="url(#filter20_f_601_631)">
<path d="M766.472 2632.22C965.526 2344.73 1395.73 2570.38 1598.19 2727.69C1606.59 2734.22 1613.88 2742.3 1619.4 2751.4C1755.74 2976.03 1518.61 3001.57 1351.93 2983.65C1327.78 2981.06 1303.44 2986.29 1281.33 2996.35C1186.61 3039.45 966.266 3096.45 622.436 3073.9C130.316 3041.62 512.41 2999.15 766.472 2632.22Z" fill="#315B46"/>
</g>
<g filter="url(#filter21_f_601_631)">
<path d="M-111.142 3446.93C-72.2119 3562.75 127.403 3846.79 203.818 3821.1C280.232 3795.42 548.784 3559.46 509.853 3443.64C470.923 3327.83 11.9383 2873.24 -64.4761 2898.92C-140.891 2924.61 -150.073 3331.11 -111.142 3446.93Z" fill="#37A193" fill-opacity="0.35"/>
</g>
<g filter="url(#filter22_f_601_631)">
<path d="M492.51 2417C557.473 2525.17 204.196 2632.05 332.511 2650.11C460.825 2668.18 1001.47 2475.4 936.51 2367.24C871.548 2259.07 357.575 2198.2 229.261 2180.13C100.947 2162.07 427.548 2308.83 492.51 2417Z" fill="#15FFE0" fill-opacity="0.25"/>
</g>
<g filter="url(#filter23_f_601_631)">
<path d="M1524.59 2438.55C1504.79 2367.17 1837.57 2229.06 1739.89 2257.47C1642.21 2285.88 1071.41 2364.63 1091.21 2436C1111 2507.38 1584.39 2657.47 1682.07 2629.06C1779.75 2600.65 1544.38 2509.92 1524.59 2438.55Z" fill="#59EC65" fill-opacity="0.25"/>
</g>
<g filter="url(#filter24_f_601_631)">
<path d="M2196.5 3676C2154.71 3525.33 2251.37 3175.34 2100.91 3219.1C1950.46 3262.86 1058.5 3338.06 1100.28 3488.73C1142.07 3639.41 1625.04 4382.26 1775.5 4338.5C1925.96 4294.74 2238.29 3826.67 2196.5 3676Z" fill="#15FFE0" fill-opacity="0.15"/>
</g>
<g filter="url(#filter25_f_601_631)">
<path d="M1240 1392C1040.61 1052.88 609.228 1320.23 407.314 1505.48C399.69 1512.48 393.23 1520.88 388.451 1530.05C251.233 1793.51 482.096 1826.17 648.834 1806.47C676.505 1803.2 704.432 1809.86 729.136 1822.75C825.88 1873.22 1044.85 1938.19 1384 1912C1876 1874 1494 1824 1240 1392Z" fill="#315B46"/>
</g>
<g filter="url(#filter26_f_601_631)">
<path d="M2027.65 2321.93C1988.72 2437.75 1789.11 2721.79 1712.69 2696.1C1636.28 2670.42 1367.73 2434.46 1406.66 2318.64C1445.59 2202.83 1904.57 1748.24 1980.99 1773.92C2057.4 1799.61 2066.58 2206.11 2027.65 2321.93Z" fill="#37A193" fill-opacity="0.35"/>
</g>
<g filter="url(#filter27_f_601_631)">
<path d="M1514 1292C1449.04 1400.17 1802.31 1507.05 1674 1525.11C1545.69 1543.18 1005.04 1350.4 1070 1242.24C1134.96 1134.07 1648.94 1073.2 1777.25 1055.13C1905.56 1037.07 1578.96 1183.83 1514 1292Z" fill="#15FFE0" fill-opacity="0.25"/>
</g>
<g filter="url(#filter28_f_601_631)">
<path d="M481.924 1313.55C501.718 1242.17 168.942 1104.06 266.623 1132.47C364.305 1160.88 935.098 1239.63 915.303 1311C895.508 1382.38 422.12 1532.47 324.438 1504.06C226.757 1475.65 462.129 1384.92 481.924 1313.55Z" fill="#59EC65" fill-opacity="0.25"/>
</g>
<g filter="url(#filter29_f_601_631)">
<path d="M1096.08 26.2568C931 68.9999 752 129.391 752 92C752 54.6095 642.361 -95 815 -95C987.638 -95 1625 25.9346 1625 63.3251C1625 100.716 1268.72 26.2568 1096.08 26.2568Z" fill="#37A193" fill-opacity="0.5"/>
</g>
<g filter="url(#filter30_f_601_631)" style="mix-blend-mode:lighten">
<path d="M934.091 546.001C828.535 546.001 541 500.3 541 462.978C541 425.656 660.298 273.001 765.854 273.001C871.41 273.001 1370 407.364 1370 444.686C1370 482.009 1039.65 546.001 934.091 546.001Z" fill="#37A193" fill-opacity="0.35"/>
</g>
<g filter="url(#filter31_f_601_631)">
<path d="M1444.81 -26.4492C1584.93 -58.2873 1627.86 -216.804 1637 -176.563C1646.14 -136.322 1856.02 53.573 1715.9 85.4111C1575.78 117.249 1015.59 71.4419 1006.44 31.2008C997.299 -9.04024 1304.69 5.38894 1444.81 -26.4492Z" fill="#F0E88F" fill-opacity="0.5"/>
</g>
</g>
<defs>
<filter id="filter0_f_601_631" x="-153.31" y="10310.3" width="2275.69" height="1688.73" filterUnits="userSpaceOnUse" color-interpolation-filters="sRGB">
<feFlood flood-opacity="0" result="BackgroundImageFix"/>
<feBlend mode="normal" in="SourceGraphic" in2="BackgroundImageFix" result="shape"/>
<feGaussianBlur stdDeviation="250" result="effect1_foregroundBlur_601_631"/>
</filter>
<filter id="filter1_f_601_631" x="1052.82" y="11003.9" width="1347.32" height="1624.86" filterUnits="userSpaceOnUse" color-interpolation-filters="sRGB">
<feFlood flood-opacity="0" result="BackgroundImageFix"/>
<feBlend mode="normal" in="SourceGraphic" in2="BackgroundImageFix" result="shape"/>
<feGaussianBlur stdDeviation="175" result="effect1_foregroundBlur_601_631"/>
</filter>
<filter id="filter2_f_601_631" x="814.605" y="10384.6" width="1242.23" height="972.687" filterUnits="userSpaceOnUse" color-interpolation-filters="sRGB">
<feFlood flood-opacity="0" result="BackgroundImageFix"/>
<feBlend mode="normal" in="SourceGraphic" in2="BackgroundImageFix" result="shape"/>
<feGaussianBlur stdDeviation="125" result="effect1_foregroundBlur_601_631"/>
</filter>
<filter id="filter3_f_601_631" x="-1.37085" y="10459.7" width="1167.18" height="878.919" filterUnits="userSpaceOnUse" color-interpolation-filters="sRGB">
<feFlood flood-opacity="0" result="BackgroundImageFix"/>
<feBlend mode="normal" in="SourceGraphic" in2="BackgroundImageFix" result="shape"/>
<feGaussianBlur stdDeviation="125" result="effect1_foregroundBlur_601_631"/>
</filter>
<filter id="filter4_f_601_631" x="14.1326" y="7329.27" width="2275.69" height="1688.73" filterUnits="userSpaceOnUse" color-interpolation-filters="sRGB">
<feFlood flood-opacity="0" result="BackgroundImageFix"/>
<feBlend mode="normal" in="SourceGraphic" in2="BackgroundImageFix" result="shape"/>
<feGaussianBlur stdDeviation="250" result="effect1_foregroundBlur_601_631"/>
</filter>
<filter id="filter5_f_601_631" x="-263.634" y="8022.87" width="1347.32" height="1624.86" filterUnits="userSpaceOnUse" color-interpolation-filters="sRGB">
<feFlood flood-opacity="0" result="BackgroundImageFix"/>
<feBlend mode="normal" in="SourceGraphic" in2="BackgroundImageFix" result="shape"/>
<feGaussianBlur stdDeviation="175" result="effect1_foregroundBlur_601_631"/>
</filter>
<filter id="filter6_f_601_631" x="-236" y="6924" width="1594" height="1392" filterUnits="userSpaceOnUse" color-interpolation-filters="sRGB">
<feFlood flood-opacity="0" result="BackgroundImageFix"/>
<feBlend mode="normal" in="SourceGraphic" in2="BackgroundImageFix" result="shape"/>
<feGaussianBlur stdDeviation="125" result="effect1_foregroundBlur_601_631"/>
</filter>
<filter id="filter7_f_601_631" x="970.705" y="7478.67" width="1167.18" height="878.918" filterUnits="userSpaceOnUse" color-interpolation-filters="sRGB">
<feFlood flood-opacity="0" result="BackgroundImageFix"/>
<feBlend mode="normal" in="SourceGraphic" in2="BackgroundImageFix" result="shape"/>
<feGaussianBlur stdDeviation="125" result="effect1_foregroundBlur_601_631"/>
</filter>
<filter id="filter8_f_601_631" x="-153.31" y="5589.27" width="2275.69" height="1688.73" filterUnits="userSpaceOnUse" color-interpolation-filters="sRGB">
<feFlood flood-opacity="0" result="BackgroundImageFix"/>
<feBlend mode="normal" in="SourceGraphic" in2="BackgroundImageFix" result="shape"/>
<feGaussianBlur stdDeviation="250" result="effect1_foregroundBlur_601_631"/>
</filter>
<filter id="filter9_f_601_631" x="1052.82" y="6282.87" width="1347.32" height="1624.86" filterUnits="userSpaceOnUse" color-interpolation-filters="sRGB">
<feFlood flood-opacity="0" result="BackgroundImageFix"/>
<feBlend mode="normal" in="SourceGraphic" in2="BackgroundImageFix" result="shape"/>
<feGaussianBlur stdDeviation="175" result="effect1_foregroundBlur_601_631"/>
</filter>
<filter id="filter10_f_601_631" x="815" y="5531" width="1242" height="1105" filterUnits="userSpaceOnUse" color-interpolation-filters="sRGB">
<feFlood flood-opacity="0" result="BackgroundImageFix"/>
<feBlend mode="normal" in="SourceGraphic" in2="BackgroundImageFix" result="shape"/>
<feGaussianBlur stdDeviation="125" result="effect1_foregroundBlur_601_631"/>
</filter>
<filter id="filter11_f_601_631" x="-1.37085" y="5738.67" width="1167.18" height="878.918" filterUnits="userSpaceOnUse" color-interpolation-filters="sRGB">
<feFlood flood-opacity="0" result="BackgroundImageFix"/>
<feBlend mode="normal" in="SourceGraphic" in2="BackgroundImageFix" result="shape"/>
<feGaussianBlur stdDeviation="125" result="effect1_foregroundBlur_601_631"/>
</filter>
<filter id="filter12_f_601_631" x="-153.31" y="8879.27" width="2275.69" height="1688.73" filterUnits="userSpaceOnUse" color-interpolation-filters="sRGB">
<feFlood flood-opacity="0" result="BackgroundImageFix"/>
<feBlend mode="normal" in="SourceGraphic" in2="BackgroundImageFix" result="shape"/>
<feGaussianBlur stdDeviation="250" result="effect1_foregroundBlur_601_631"/>
</filter>
<filter id="filter13_f_601_631" x="281.079" y="9819.61" width="2291.58" height="1210.69" filterUnits="userSpaceOnUse" color-interpolation-filters="sRGB">
<feFlood flood-opacity="0" result="BackgroundImageFix"/>
<feBlend mode="normal" in="SourceGraphic" in2="BackgroundImageFix" result="shape"/>
<feGaussianBlur stdDeviation="175" result="effect1_foregroundBlur_601_631"/>
</filter>
<filter id="filter14_f_601_631" x="815" y="8471" width="1570" height="1105" filterUnits="userSpaceOnUse" color-interpolation-filters="sRGB">
<feFlood flood-opacity="0" result="BackgroundImageFix"/>
<feBlend mode="normal" in="SourceGraphic" in2="BackgroundImageFix" result="shape"/>
<feGaussianBlur stdDeviation="125" result="effect1_foregroundBlur_601_631"/>
</filter>
<filter id="filter15_f_601_631" x="-1.37085" y="9028.67" width="1167.18" height="878.919" filterUnits="userSpaceOnUse" color-interpolation-filters="sRGB">
<feFlood flood-opacity="0" result="BackgroundImageFix"/>
<feBlend mode="normal" in="SourceGraphic" in2="BackgroundImageFix" result="shape"/>
<feGaussianBlur stdDeviation="125" result="effect1_foregroundBlur_601_631"/>
</filter>
<filter id="filter16_f_601_631" x="147.703" y="4472.62" width="2310.42" height="1753.33" filterUnits="userSpaceOnUse" color-interpolation-filters="sRGB">
<feFlood flood-opacity="0" result="BackgroundImageFix"/>
<feBlend mode="normal" in="SourceGraphic" in2="BackgroundImageFix" result="shape"/>
<feGaussianBlur stdDeviation="250" result="effect1_foregroundBlur_601_631"/>
</filter>
<filter id="filter17_f_601_631" x="-361.91" y="3464" width="2276" height="1585" filterUnits="userSpaceOnUse" color-interpolation-filters="sRGB">
<feFlood flood-opacity="0" result="BackgroundImageFix"/>
<feBlend mode="normal" in="SourceGraphic" in2="BackgroundImageFix" result="shape"/>
<feGaussianBlur stdDeviation="250" result="effect1_foregroundBlur_601_631"/>
</filter>
<filter id="filter18_f_601_631" x="-166.978" y="4210.1" width="2428.75" height="1073.37" filterUnits="userSpaceOnUse" color-interpolation-filters="sRGB">
<feFlood flood-opacity="0" result="BackgroundImageFix"/>
<feBlend mode="normal" in="SourceGraphic" in2="BackgroundImageFix" result="shape"/>
<feGaussianBlur stdDeviation="175" result="effect1_foregroundBlur_601_631"/>
</filter>
<filter id="filter19_f_601_631" x="-356.745" y="4415.44" width="1638.84" height="1334.11" filterUnits="userSpaceOnUse" color-interpolation-filters="sRGB">
<feFlood flood-opacity="0" result="BackgroundImageFix"/>
<feBlend mode="normal" in="SourceGraphic" in2="BackgroundImageFix" result="shape"/>
<feGaussianBlur stdDeviation="175" result="effect1_foregroundBlur_601_631"/>
</filter>
<filter id="filter20_f_601_631" x="-116" y="1994" width="2276" height="1585" filterUnits="userSpaceOnUse" color-interpolation-filters="sRGB">
<feFlood flood-opacity="0" result="BackgroundImageFix"/>
<feBlend mode="normal" in="SourceGraphic" in2="BackgroundImageFix" result="shape"/>
<feGaussianBlur stdDeviation="250" result="effect1_foregroundBlur_601_631"/>
</filter>
<filter id="filter21_f_601_631" x="-483.634" y="2547.87" width="1347.32" height="1624.86" filterUnits="userSpaceOnUse" color-interpolation-filters="sRGB">
<feFlood flood-opacity="0" result="BackgroundImageFix"/>
<feBlend mode="normal" in="SourceGraphic" in2="BackgroundImageFix" result="shape"/>
<feGaussianBlur stdDeviation="175" result="effect1_foregroundBlur_601_631"/>
</filter>
<filter id="filter22_f_601_631" x="-50.3298" y="1928.61" width="1242.23" height="972.686" filterUnits="userSpaceOnUse" color-interpolation-filters="sRGB">
<feFlood flood-opacity="0" result="BackgroundImageFix"/>
<feBlend mode="normal" in="SourceGraphic" in2="BackgroundImageFix" result="shape"/>
<feGaussianBlur stdDeviation="125" result="effect1_foregroundBlur_601_631"/>
</filter>
<filter id="filter23_f_601_631" x="840.705" y="2003.67" width="1167.18" height="878.919" filterUnits="userSpaceOnUse" color-interpolation-filters="sRGB">
<feFlood flood-opacity="0" result="BackgroundImageFix"/>
<feBlend mode="normal" in="SourceGraphic" in2="BackgroundImageFix" result="shape"/>
<feGaussianBlur stdDeviation="125" result="effect1_foregroundBlur_601_631"/>
</filter>
<filter id="filter24_f_601_631" x="598.863" y="2715.34" width="2101.45" height="2125.01" filterUnits="userSpaceOnUse" color-interpolation-filters="sRGB">
<feFlood flood-opacity="0" result="BackgroundImageFix"/>
<feBlend mode="normal" in="SourceGraphic" in2="BackgroundImageFix" result="shape"/>
<feGaussianBlur stdDeviation="250" result="effect1_foregroundBlur_601_631"/>
</filter>
<filter id="filter25_f_601_631" x="-153.31" y="729.277" width="2275.69" height="1688.73" filterUnits="userSpaceOnUse" color-interpolation-filters="sRGB">
<feFlood flood-opacity="0" result="BackgroundImageFix"/>
<feBlend mode="normal" in="SourceGraphic" in2="BackgroundImageFix" result="shape"/>
<feGaussianBlur stdDeviation="250" result="effect1_foregroundBlur_601_631"/>
</filter>
<filter id="filter26_f_601_631" x="1052.82" y="1422.87" width="1347.32" height="1624.86" filterUnits="userSpaceOnUse" color-interpolation-filters="sRGB">
<feFlood flood-opacity="0" result="BackgroundImageFix"/>
<feBlend mode="normal" in="SourceGraphic" in2="BackgroundImageFix" result="shape"/>
<feGaussianBlur stdDeviation="175" result="effect1_foregroundBlur_601_631"/>
</filter>
<filter id="filter27_f_601_631" x="814.605" y="803.613" width="1242.23" height="972.686" filterUnits="userSpaceOnUse" color-interpolation-filters="sRGB">
<feFlood flood-opacity="0" result="BackgroundImageFix"/>
<feBlend mode="normal" in="SourceGraphic" in2="BackgroundImageFix" result="shape"/>
<feGaussianBlur stdDeviation="125" result="effect1_foregroundBlur_601_631"/>
</filter>
<filter id="filter28_f_601_631" x="-1.37085" y="878.674" width="1167.18" height="878.919" filterUnits="userSpaceOnUse" color-interpolation-filters="sRGB">
<feFlood flood-opacity="0" result="BackgroundImageFix"/>
<feBlend mode="normal" in="SourceGraphic" in2="BackgroundImageFix" result="shape"/>
<feGaussianBlur stdDeviation="125" result="effect1_foregroundBlur_601_631"/>
</filter>
<filter id="filter29_f_601_631" x="567.678" y="-245" width="1207.32" height="498.709" filterUnits="userSpaceOnUse" color-interpolation-filters="sRGB">
<feFlood flood-opacity="0" result="BackgroundImageFix"/>
<feBlend mode="normal" in="SourceGraphic" in2="BackgroundImageFix" result="shape"/>
<feGaussianBlur stdDeviation="75" result="effect1_foregroundBlur_601_631"/>
</filter>
<filter id="filter30_f_601_631" x="291" y="23.0008" width="1329" height="773" filterUnits="userSpaceOnUse" color-interpolation-filters="sRGB">
<feFlood flood-opacity="0" result="BackgroundImageFix"/>
<feBlend mode="normal" in="SourceGraphic" in2="BackgroundImageFix" result="shape"/>
<feGaussianBlur stdDeviation="125" result="effect1_foregroundBlur_601_631"/>
</filter>
<filter id="filter31_f_601_631" x="806.243" y="-383.061" width="1157.73" height="679.134" filterUnits="userSpaceOnUse" color-interpolation-filters="sRGB">
<feFlood flood-opacity="0" result="BackgroundImageFix"/>
<feBlend mode="normal" in="SourceGraphic" in2="BackgroundImageFix" result="shape"/>
<feGaussianBlur stdDeviation="100" result="effect1_foregroundBlur_601_631"/>
</filter>
<clipPath id="clip0_601_631">
<rect width="1920" height="14434" fill="white"/>
</clipPath>
</defs>
</svg>
