<svg width="24" height="24" viewBox="0 0 24 24" fill="none" xmlns="http://www.w3.org/2000/svg">
<path d="M22.3067 12.2424C22.3067 11.4861 22.2388 10.7588 22.1127 10.0606H12.0667V14.1915H17.8073C17.5551 15.52 16.7988 16.6449 15.6642 17.4012V20.0873H19.126C21.143 18.2255 22.3067 15.4909 22.3067 12.2424Z" fill="white"/>
<path d="M12.0666 22.6667C14.9466 22.6667 17.3612 21.7164 19.126 20.0873L15.6642 17.4012C14.7139 18.0412 13.5018 18.4291 12.0666 18.4291C9.29328 18.4291 6.93692 16.5576 6.09328 14.0364H2.54419V16.7903C4.29934 20.2715 7.89692 22.6667 12.0666 22.6667Z" fill="#C5F2DE"/>
<path d="M6.09336 14.0266C5.88003 13.3866 5.75397 12.7078 5.75397 11.9999C5.75397 11.292 5.88003 10.6132 6.09336 9.97324V7.2193H2.54427C1.81699 8.65445 1.40002 10.2738 1.40002 11.9999C1.40002 13.726 1.81699 15.3454 2.54427 16.7805L5.30791 14.6278L6.09336 14.0266Z" fill="white"/>
<path d="M12.0666 5.58059C13.6375 5.58059 15.0339 6.12362 16.149 7.17089L19.2036 4.11634C17.3515 2.39028 14.9466 1.33331 12.0666 1.33331C7.89692 1.33331 4.29934 3.72847 2.54419 7.21938L6.09328 9.97332C6.93692 7.4521 9.29328 5.58059 12.0666 5.58059Z" fill="#C5F2DE"/>
</svg>
